{
	"asset":{
		"generator":"Khronos glTF Blender I/O v4.3.47",
		"version":"2.0"
	},
	"scene":0,
	"scenes":[
		{
			"name":"Scene",
			"nodes":[
				0
			]
		}
	],
	"nodes":[
		{
			"mesh":0,
			"name":"Cube.006",
			"rotation":[
				0.7071068286895752,
				0,
				0,
				0.7071068286895752
			],
			"translation":[
				0,
				0.49885082244873047,
				3.054075241088867
			]
		}
	],
	"materials":[
		{
			"doubleSided":true,
			"name":"Material",
			"pbrMetallicRoughness":{
				"metallicFactor":0,
				"roughnessFactor":0.5
			}
		}
	],
	"meshes":[
		{
			"name":"Cube.007",
			"primitives":[
				{
					"attributes":{
						"POSITION":0,
						"NORMAL":1,
						"TEXCOORD_0":2
					},
					"indices":3,
					"material":0
				}
			]
		}
	],
	"accessors":[
		{
			"bufferView":0,
			"componentType":5126,
			"count":912,
			"max":[
				1,
				4.335513591766357,
				8.087422370910645
			],
			"min":[
				-1,
				-4.302367210388184,
				-1.2277326583862305
			],
			"type":"VEC3"
		},
		{
			"bufferView":1,
			"componentType":5126,
			"count":912,
			"type":"VEC3"
		},
		{
			"bufferView":2,
			"componentType":5126,
			"count":912,
			"type":"VEC2"
		},
		{
			"bufferView":3,
			"componentType":5123,
			"count":1692,
			"type":"SCALAR"
		}
	],
	"bufferViews":[
		{
			"buffer":0,
			"byteLength":10944,
			"byteOffset":0,
			"target":34962
		},
		{
			"buffer":0,
			"byteLength":10944,
			"byteOffset":10944,
			"target":34962
		},
		{
			"buffer":0,
			"byteLength":7296,
			"byteOffset":21888,
			"target":34962
		},
		{
			"buffer":0,
			"byteLength":3384,
			"byteOffset":29184,
			"target":34963
		}
	],
	"buffers":[
		{
			"byteLength":32568,
			"uri":"Gun-6703a8c33f2a2912c170c95ec23e6e8f.bin"
		}
	]
}
