{
	"asset":{
		"generator":"Khronos glTF Blender I/O v4.3.47",
		"version":"2.0"
	},
	"scene":0,
	"scenes":[
		{
			"name":"Scene",
			"nodes":[
				0,
				1
			]
		}
	],
	"nodes":[
		{
			"name":"Empty",
			"rotation":[
				-0.4999999403953552,
				0.49999988079071045,
				-0.5000000596046448,
				0.5000001192092896
			],
			"translation":[
				0,
				0,
				-3.2699999809265137
			]
		},
		{
			"mesh":0,
			"name":"Plane.001",
			"rotation":[
				0.5,
				-0.5,
				-0.5,
				0.5
			],
			"translation":[
				0,
				-1.6839483976364136,
				0
			]
		}
	],
	"materials":[
		{
			"doubleSided":true,
			"name":"katana",
			"pbrMetallicRoughness":{
				"baseColorTexture":{
					"index":0
				},
				"roughnessFactor":0.5
			}
		},
		{
			"doubleSided":true,
			"name":"Handle.001",
			"pbrMetallicRoughness":{
				"baseColorTexture":{
					"index":1
				},
				"metallicFactor":0,
				"roughnessFactor":0.5
			}
		}
	],
	"meshes":[
		{
			"name":"Plane.001",
			"primitives":[
				{
					"attributes":{
						"POSITION":0,
						"NORMAL":1,
						"TEXCOORD_0":2,
						"TANGENT":3
					},
					"indices":4,
					"material":0
				},
				{
					"attributes":{
						"POSITION":5,
						"NORMAL":6,
						"TEXCOORD_0":7,
						"TANGENT":8
					},
					"indices":9,
					"material":1
				}
			]
		}
	],
	"textures":[
		{
			"sampler":0,
			"source":0
		},
		{
			"sampler":0,
			"source":1
		}
	],
	"images":[
		{
			"mimeType":"image/jpeg",
			"name":"everytexture.com-stock-metal-texture-00083.jpg",
			"uri":"../../assets/Models/Weapons/Sword/everytexture.com-stock-metal-texture-00083.jpg"
		},
		{
			"mimeType":"image/jpeg",
			"name":"8188-v8.jpg",
			"uri":"../../assets/Models/Weapons/Sword/8188-v8.jpg"
		}
	],
	"accessors":[
		{
			"bufferView":0,
			"componentType":5126,
			"count":66,
			"max":[
				-0.8144204020500183,
				-0.005757628940045834,
				0.26768556237220764
			],
			"min":[
				-4.016902923583984,
				-0.05787139758467674,
				-0.06579620391130447
			],
			"type":"VEC3"
		},
		{
			"bufferView":1,
			"componentType":5126,
			"count":66,
			"type":"VEC3"
		},
		{
			"bufferView":2,
			"componentType":5126,
			"count":66,
			"type":"VEC2"
		},
		{
			"bufferView":3,
			"componentType":5126,
			"count":66,
			"type":"VEC4"
		},
		{
			"bufferView":4,
			"componentType":5123,
			"count":108,
			"type":"SCALAR"
		},
		{
			"bufferView":5,
			"componentType":5126,
			"count":100,
			"max":[
				0.6361473202705383,
				0.0047265877947211266,
				0.17138606309890747
			],
			"min":[
				-0.8274280428886414,
				-0.06470128893852234,
				-0.15828101336956024
			],
			"type":"VEC3"
		},
		{
			"bufferView":6,
			"componentType":5126,
			"count":100,
			"type":"VEC3"
		},
		{
			"bufferView":7,
			"componentType":5126,
			"count":100,
			"type":"VEC2"
		},
		{
			"bufferView":8,
			"componentType":5126,
			"count":100,
			"type":"VEC4"
		},
		{
			"bufferView":9,
			"componentType":5123,
			"count":180,
			"type":"SCALAR"
		}
	],
	"bufferViews":[
		{
			"buffer":0,
			"byteLength":792,
			"byteOffset":0,
			"target":34962
		},
		{
			"buffer":0,
			"byteLength":792,
			"byteOffset":792,
			"target":34962
		},
		{
			"buffer":0,
			"byteLength":528,
			"byteOffset":1584,
			"target":34962
		},
		{
			"buffer":0,
			"byteLength":1056,
			"byteOffset":2112,
			"target":34962
		},
		{
			"buffer":0,
			"byteLength":216,
			"byteOffset":3168,
			"target":34963
		},
		{
			"buffer":0,
			"byteLength":1200,
			"byteOffset":3384,
			"target":34962
		},
		{
			"buffer":0,
			"byteLength":1200,
			"byteOffset":4584,
			"target":34962
		},
		{
			"buffer":0,
			"byteLength":800,
			"byteOffset":5784,
			"target":34962
		},
		{
			"buffer":0,
			"byteLength":1600,
			"byteOffset":6584,
			"target":34962
		},
		{
			"buffer":0,
			"byteLength":360,
			"byteOffset":8184,
			"target":34963
		}
	],
	"samplers":[
		{
			"magFilter":9729,
			"minFilter":9987
		}
	],
	"buffers":[
		{
			"byteLength":8544,
			"uri":"sword-95ae79cf07348bb6e0bcbea71cce13b0.bin"
		}
	]
}
